<svg width="30" height="30" viewBox="0 0 30 30" fill="none" xmlns="http://www.w3.org/2000/svg">
<path d="M28.4899 17.6598L13.3622 2.517L13.1336 2.74268C11.9941 1.62105 10.4861 1.0017 8.88082 1C8.88082 1 8.88082 1 8.87912 1C7.26194 1 5.73859 1.62784 4.59394 2.76644C3.44759 3.90504 2.81641 5.41864 2.81641 7.03236C2.81641 8.62911 3.44076 10.1291 4.56835 11.2627L0.801765 15.011C0.284882 15.5269 0 16.209 0 16.9336C0 17.6615 0.283176 18.342 0.796647 18.851L9.00365 27.0961C9.51882 27.6086 10.2046 27.8919 10.933 27.8919C11.6648 27.8919 12.3506 27.6069 12.8658 27.0927L22.3471 17.6615L28.4899 17.6598ZM4.52229 7.03066C4.52229 5.8734 4.97606 4.78571 5.8 3.96612C6.62394 3.14823 7.71571 2.69687 8.87912 2.69687C8.88082 2.69687 8.88082 2.69687 8.88082 2.69687C10.0306 2.69687 11.1087 3.14145 11.9275 3.94237L5.77612 10.063C4.96923 9.24677 4.52229 8.17435 4.52229 7.03066ZM11.6563 25.8947C11.4635 26.0865 11.2042 26.1951 10.9313 26.1951C10.6584 26.1951 10.4008 26.0899 10.2114 25.8998L4.00882 19.6655H17.9186L11.6563 25.8947ZM19.6245 17.9687H2.31829L2.00612 17.6531C1.81165 17.4613 1.70588 17.2068 1.70588 16.9353C1.70588 16.6621 1.81335 16.4059 2.00782 16.2107L13.3588 4.91976L24.3924 15.9647L21.6391 15.9664L19.6245 17.9687ZM26.7619 21.2928L26.0676 20.2679L25.3545 21.2826C24.8104 22.0581 23.0294 24.695 23.0294 26.0305C23.0294 27.668 24.3685 29 26.0147 29C27.6609 29 29 27.6663 29 26.0288C29 24.7018 27.2873 22.0683 26.7619 21.2928ZM26.0147 27.3014C25.3102 27.3014 24.7353 26.7296 24.7353 26.0288C24.7353 25.6215 25.3306 24.4677 26.042 23.3291C26.7244 24.466 27.2941 25.6181 27.2941 26.0288C27.2941 26.7296 26.7192 27.3014 26.0147 27.3014Z" fill="#181818"/>
</svg>
